<?xml version="1.0" encoding="iso-8859-1"?>
<!-- Uploaded to: SVG Repo, www.svgrepo.com, Generator: SVG Repo Mixer Tools -->
<!DOCTYPE svg PUBLIC "-//W3C//DTD SVG 1.1//EN" "http://www.w3.org/Graphics/SVG/1.1/DTD/svg11.dtd">
<svg fill="#FFF" height="800px" width="800px" version="1.1" id="Capa_1" xmlns="http://www.w3.org/2000/svg" xmlns:xlink="http://www.w3.org/1999/xlink" 
	 viewBox="0 0 297 297" xml:space="preserve">
<path d="M290.784,147.476L133.921,84.731V58.807c0-24.929-55.779-26.191-66.96-26.191S0,33.879,0,58.807v97.846
	c0,24.929,55.779,26.191,66.96,26.191c9.109,0,47.816-0.84,61.849-14.63l136.371,94.41c1.717,1.188,3.676,1.759,5.617,1.759
	c3.134,0,6.216-1.487,8.135-4.258c3.107-4.488,1.988-10.645-2.5-13.752l-142.512-98.662v-41.69l149.523,59.809
	c1.204,0.482,2.446,0.709,3.668,0.709c3.922,0,7.634-2.351,9.18-6.216C298.318,155.256,295.852,149.504,290.784,147.476z
	 M79.449,52.803c14.775,1.002,25.447,3.645,31.117,6.004c-5.669,2.359-16.342,5.002-31.117,6.004
	c1.862-1.346,3.077-3.531,3.077-6.004S81.311,54.15,79.449,52.803z M54.471,52.803c-1.862,1.346-3.077,3.531-3.077,6.004
	s1.216,4.658,3.077,6.004c-14.775-1.002-25.447-3.645-31.117-6.004C29.024,56.449,39.696,53.805,54.471,52.803z M64.432,99.605
	c-4.489-3.106-10.644-1.987-13.752,2.5c-3.107,4.488-1.988,10.645,2.5,13.752l58.331,40.383c-6.712,3.065-22.224,6.839-44.551,6.839
	c-26.091,0-42.886-5.154-47.193-8.307V78.595c17.201,5.937,40.408,6.403,47.193,6.403c6.786,0,29.993-0.466,47.193-6.403v55.431
	L64.432,99.605z"/>
</svg>